# xmcd
#
# Track frame offsets:
#	150
#	15850
#	33877
#	51421
#	72238
#	90387
#	110062
#	132173
#	147682
#	162382
#	181829
#	197797
#	215727
#
# Disc length: 3143 seconds
# Revision: 0
# Processed by: cddbd v1.5.2PL0 Copyright (c) Steve Scherf et al.
# Submitted via: dBpowerAMP V12.0
#
DISCID=bb0c450d
DTITLE=Systems in Blue - Point of no Return
DYEAR=2005
DGENRE=Eurodance
TTITLE0=Point of no Return
TTITLE1=Winner
TTITLE2=A Thousand and one Nights
TTITLE3=Avalon (and she's gone)
TTITLE4=Every little Thing
TTITLE5=Voodoo Queen
TTITLE6=The Story of Lara Layne
TTITLE7=Calling Lady Loraine
TTITLE8=Sarah's Dream
TTITLE9=Le vent m'a dit
TTITLE10=Can't stand the Pain
TTITLE11=Magic Mystery
TTITLE12=Only 4 U
EXTD=
EXTT0=
EXTT1=
EXTT2=
EXTT3=
EXTT4=
EXTT5=
EXTT6=
EXTT7=
EXTT8=
EXTT9=
EXTT10=
EXTT11=
EXTT12=
PLAYORDER=
